<?xml version="1.0" encoding="UTF-8" standalone="no"?>
<!DOCTYPE svg PUBLIC "-//W3C//DTD SVG 1.1//EN" "http://www.w3.org/Graphics/SVG/1.1/DTD/svg11.dtd">
<svg version="1.1" xmlns="http://www.w3.org/2000/svg" xmlns:xlink="http://www.w3.org/1999/xlink" preserveAspectRatio="xMidYMid meet" viewBox="0 0 640 640" width="640" height="640"><defs><path d="M522.16 101.25C533.2 101.25 542.16 110.2 542.16 121.25C542.16 206.11 542.16 440.7 542.16 525.57C542.16 536.61 533.2 545.57 522.16 545.57C437.3 545.57 202.7 545.57 117.84 545.57C106.8 545.57 97.84 536.61 97.84 525.57C97.84 440.7 97.84 206.11 97.84 121.25C97.84 110.2 106.8 101.25 117.84 101.25C202.7 101.25 437.3 101.25 522.16 101.25Z" id="c2FMY7ArCA"></path><path d="M105.8 166.02L208.07 166.02L208.07 545.57L105.8 545.57L105.8 166.02Z" id="d6FaxWvlr"></path><path d="M208.07 339.89L279.66 339.89L279.66 545.57L208.07 545.57L208.07 339.89Z" id="cbUE6K2K"></path><path d="M191.59 482.5C191.59 501.63 176.06 517.16 156.93 517.16C137.8 517.16 122.27 501.63 122.27 482.5C122.27 463.37 137.8 447.84 156.93 447.84C176.06 447.84 191.59 463.37 191.59 482.5Z" id="f1SEBtU0Aa"></path><path d="M173.98 194.43L191.59 194.43L191.59 417.16L173.98 417.16L173.98 194.43Z" id="bDN1fnT6Q"></path><path d="M218.3 378.52L231.93 378.52L231.93 417.16L218.3 417.16L218.3 378.52Z" id="bFiCn0reg"></path><path d="M243.86 378.52L259.2 378.52L259.2 525.11L243.86 525.11L243.86 378.52Z" id="a8ZB2htQY"></path><path d="M279.66 355.8L304.66 355.8L304.66 545.57L279.66 545.57L279.66 355.8Z" id="hiQ5LiLUC"></path><path d="M304.66 355.8L329.66 355.8L329.66 545.57L304.66 545.57L304.66 355.8Z" id="boOfxvsec"></path><path d="M329.66 355.8L354.66 355.8L354.66 545.57L329.66 545.57L329.66 355.8Z" id="d1g5poHlGk"></path><path d="M362.79 368.41L384.37 355.8L480.16 519.62L458.58 532.24L362.79 368.41Z" id="c4NY9jrxrx"></path></defs><g><g><g><use xlink:href="#c2FMY7ArCA" opacity="1" fill="#ffffff" fill-opacity="1"></use><g><use xlink:href="#c2FMY7ArCA" opacity="1" fill-opacity="0" stroke="#ffffff" stroke-width="20" stroke-opacity="1"></use></g></g><g><use xlink:href="#d6FaxWvlr" opacity="1" fill="#ffffff" fill-opacity="1"></use><g><use xlink:href="#d6FaxWvlr" opacity="1" fill-opacity="0" stroke="#ffffff" stroke-width="8" stroke-opacity="1"></use></g></g><g><use xlink:href="#cbUE6K2K" opacity="1" fill="#ffffff" fill-opacity="1"></use><g><use xlink:href="#cbUE6K2K" opacity="1" fill-opacity="0" stroke="#ffffff" stroke-width="8" stroke-opacity="1"></use></g></g><g><use xlink:href="#f1SEBtU0Aa" opacity="1" fill="#ffffff" fill-opacity="1"></use><g><use xlink:href="#f1SEBtU0Aa" opacity="1" fill-opacity="0" stroke="#ffffff" stroke-width="1" stroke-opacity="1"></use></g></g><g><use xlink:href="#bDN1fnT6Q" opacity="1" fill="#ffffff" fill-opacity="1"></use><g><use xlink:href="#bDN1fnT6Q" opacity="1" fill-opacity="0" stroke="#ffffff" stroke-width="6" stroke-opacity="1"></use></g></g><g><use xlink:href="#bFiCn0reg" opacity="1" fill="#ffffff" fill-opacity="1"></use><g><use xlink:href="#bFiCn0reg" opacity="1" fill-opacity="0" stroke="#ffffff" stroke-width="2" stroke-opacity="1"></use></g></g><g><use xlink:href="#a8ZB2htQY" opacity="1" fill="#ffffff" fill-opacity="1"></use><g><use xlink:href="#a8ZB2htQY" opacity="1" fill-opacity="0" stroke="#ffffff" stroke-width="2" stroke-opacity="1"></use></g></g><g><use xlink:href="#hiQ5LiLUC" opacity="1" fill="#ffffff" fill-opacity="1"></use><g><use xlink:href="#hiQ5LiLUC" opacity="1" fill-opacity="0" stroke="#ffffff" stroke-width="8" stroke-opacity="1"></use></g></g><g><use xlink:href="#boOfxvsec" opacity="1" fill="#ffffff" fill-opacity="1"></use><g><use xlink:href="#boOfxvsec" opacity="1" fill-opacity="0" stroke="#ffffff" stroke-width="8" stroke-opacity="1"></use></g></g><g><use xlink:href="#d1g5poHlGk" opacity="1" fill="#ffffff" fill-opacity="1"></use><g><use xlink:href="#d1g5poHlGk" opacity="1" fill-opacity="0" stroke="#ffffff" stroke-width="8" stroke-opacity="1"></use></g></g><g><use xlink:href="#c4NY9jrxrx" opacity="1" fill="#ffffff" fill-opacity="1"></use><g><use xlink:href="#c4NY9jrxrx" opacity="1" fill-opacity="0" stroke="#ffffff" stroke-width="8" stroke-opacity="1"></use></g></g></g></g></svg>