<?xml version="1.0" encoding="UTF-8" standalone="no"?>
<!DOCTYPE svg PUBLIC "-//W3C//DTD SVG 1.1//EN" "http://www.w3.org/Graphics/SVG/1.1/DTD/svg11.dtd">
<svg version="1.1" xmlns="http://www.w3.org/2000/svg" xmlns:xlink="http://www.w3.org/1999/xlink" preserveAspectRatio="xMidYMid meet" viewBox="0 0 640 640" width="640" height="640"><defs><path d="M522.16 101.25C533.2 101.25 542.16 110.2 542.16 121.25C542.16 206.11 542.16 440.7 542.16 525.57C542.16 536.61 533.2 545.57 522.16 545.57C437.3 545.57 202.7 545.57 117.84 545.57C106.8 545.57 97.84 536.61 97.84 525.57C97.84 440.7 97.84 206.11 97.84 121.25C97.84 110.2 106.8 101.25 117.84 101.25C202.7 101.25 437.3 101.25 522.16 101.25Z" id="d5phIdODm"></path><path d="M105.8 166.02L208.07 166.02L208.07 545.57L105.8 545.57L105.8 166.02Z" id="a26Nqe8G7z"></path><path d="M208.07 339.89L279.66 339.89L279.66 545.57L208.07 545.57L208.07 339.89Z" id="aoUJvnbs"></path><path d="M191.59 482.5C191.59 501.63 176.06 517.16 156.93 517.16C137.8 517.16 122.27 501.63 122.27 482.5C122.27 463.37 137.8 447.84 156.93 447.84C176.06 447.84 191.59 463.37 191.59 482.5Z" id="a1asbvjoXH"></path><path d="M173.98 194.43L191.59 194.43L191.59 417.16L173.98 417.16L173.98 194.43Z" id="a35jVUcxrY"></path><path d="M218.3 378.52L231.93 378.52L231.93 417.16L218.3 417.16L218.3 378.52Z" id="b1xEnzBZvk"></path><path d="M243.86 378.52L259.2 378.52L259.2 525.11L243.86 525.11L243.86 378.52Z" id="iSukVZC73"></path><path d="M279.66 355.8L304.66 355.8L304.66 545.57L279.66 545.57L279.66 355.8Z" id="avJk2Ixtw"></path><path d="M304.66 355.8L329.66 355.8L329.66 545.57L304.66 545.57L304.66 355.8Z" id="emMTTv3tY"></path><path d="M329.66 355.8L354.66 355.8L354.66 545.57L329.66 545.57L329.66 355.8Z" id="a2nAyMywVj"></path><path d="M362.79 368.41L384.37 355.8L480.16 519.62L458.58 532.24L362.79 368.41Z" id="d3NrA1qGM"></path><path d="M362.81 308.19C373.59 310.62 380.35 321.33 377.92 332.1C377 336.18 378.64 328.91 377.72 332.99C375.28 343.76 364.58 350.53 353.8 348.09C328.44 342.36 271.87 329.59 246.5 323.86C235.73 321.42 228.97 310.72 231.4 299.94C232.32 295.86 230.68 303.13 231.6 299.06C234.04 288.28 244.74 281.52 255.52 283.95C280.88 289.68 337.45 302.46 362.81 308.19Z" id="a41MIqzly"></path><path d="M414.04 547.97C405.18 538.97 402.3 536.05 405.4 539.19C402.32 536.07 399.84 532.43 398.07 528.43C396.33 524.51 394.53 520.46 392.97 516.96C390.58 511.57 388.84 505.9 387.8 500.1C386.51 492.94 384.78 483.28 383.63 476.9C382.13 468.54 381.64 460.04 382.17 451.57C382.36 448.59 382.83 441.15 383.58 429.24C384.32 410.83 384.78 399.32 384.97 394.72C385.52 380.9 384.52 367.06 381.98 353.47C380.53 345.69 377.73 330.7 375.72 319.9C375.06 316.36 373.89 312.93 372.26 309.73C370.76 306.78 369.42 304.17 368.1 301.57C366.05 297.54 361.9 295 357.38 295C356.86 295 358.85 295 357.38 295C355.68 295 354.01 295.45 352.54 296.31C350.84 297.3 346.58 299.79 339.78 303.77" id="c1wShwj9NQ"></path><path d="M260.91 293.61L245.57 315.62" id="c8zFmIDErc"></path><path d="M267.16 309.2L239.89 298.98" id="a3P6802kMB"></path><path d="M354.66 326.25C354.66 329.7 351.86 332.5 348.41 332.5C344.96 332.5 342.16 329.7 342.16 326.25C342.16 322.8 344.96 320 348.41 320C351.86 320 354.66 322.8 354.66 326.25Z" id="caqaRxW2s"></path><path d="M329.66 326.25C329.66 329.7 326.86 332.5 323.41 332.5C319.96 332.5 317.16 329.7 317.16 326.25C317.16 322.8 319.96 320 323.41 320C326.86 320 329.66 322.8 329.66 326.25Z" id="b2b46ghdad"></path></defs><g><g><g><use xlink:href="#d5phIdODm" opacity="1" fill="#05e225" fill-opacity="0"></use><g><use xlink:href="#d5phIdODm" opacity="1" fill-opacity="0" stroke="#000000" stroke-width="20" stroke-opacity="1"></use></g></g><g><use xlink:href="#a26Nqe8G7z" opacity="1" fill="#ffffff" fill-opacity="0"></use><g><use xlink:href="#a26Nqe8G7z" opacity="1" fill-opacity="0" stroke="#000000" stroke-width="8" stroke-opacity="1"></use></g></g><g><use xlink:href="#aoUJvnbs" opacity="1" fill="#ffffff" fill-opacity="0"></use><g><use xlink:href="#aoUJvnbs" opacity="1" fill-opacity="0" stroke="#000000" stroke-width="8" stroke-opacity="1"></use></g></g><g><use xlink:href="#a1asbvjoXH" opacity="1" fill="#000000" fill-opacity="0.99"></use><g><use xlink:href="#a1asbvjoXH" opacity="1" fill-opacity="0" stroke="#000000" stroke-width="1" stroke-opacity="1"></use></g></g><g><use xlink:href="#a35jVUcxrY" opacity="1" fill="#000000" fill-opacity="0.99"></use><g><use xlink:href="#a35jVUcxrY" opacity="1" fill-opacity="0" stroke="#000000" stroke-width="6" stroke-opacity="1"></use></g></g><g><use xlink:href="#b1xEnzBZvk" opacity="1" fill="#000000" fill-opacity="0.99"></use><g><use xlink:href="#b1xEnzBZvk" opacity="1" fill-opacity="0" stroke="#000000" stroke-width="2" stroke-opacity="1"></use></g></g><g><use xlink:href="#iSukVZC73" opacity="1" fill="#000000" fill-opacity="0.99"></use><g><use xlink:href="#iSukVZC73" opacity="1" fill-opacity="0" stroke="#000000" stroke-width="2" stroke-opacity="1"></use></g></g><g><use xlink:href="#avJk2Ixtw" opacity="1" fill="#000000" fill-opacity="0"></use><g><use xlink:href="#avJk2Ixtw" opacity="1" fill-opacity="0" stroke="#000000" stroke-width="8" stroke-opacity="1"></use></g></g><g><use xlink:href="#emMTTv3tY" opacity="1" fill="#000000" fill-opacity="0"></use><g><use xlink:href="#emMTTv3tY" opacity="1" fill-opacity="0" stroke="#000000" stroke-width="8" stroke-opacity="1"></use></g></g><g><use xlink:href="#a2nAyMywVj" opacity="1" fill="#000000" fill-opacity="0"></use><g><use xlink:href="#a2nAyMywVj" opacity="1" fill-opacity="0" stroke="#000000" stroke-width="8" stroke-opacity="1"></use></g></g><g><use xlink:href="#d3NrA1qGM" opacity="1" fill="#000000" fill-opacity="0"></use><g><use xlink:href="#d3NrA1qGM" opacity="1" fill-opacity="0" stroke="#000000" stroke-width="8" stroke-opacity="1"></use></g></g><g><use xlink:href="#a41MIqzly" opacity="1" fill="#020202" fill-opacity="0"></use><g><use xlink:href="#a41MIqzly" opacity="1" fill-opacity="0" stroke="#000000" stroke-width="8" stroke-opacity="1"></use></g></g><g><g><use xlink:href="#c1wShwj9NQ" opacity="1" fill-opacity="0" stroke="#000000" stroke-width="8" stroke-opacity="1"></use></g></g><g><g><use xlink:href="#c8zFmIDErc" opacity="1" fill-opacity="0" stroke="#000000" stroke-width="8" stroke-opacity="1"></use></g></g><g><g><use xlink:href="#a3P6802kMB" opacity="1" fill-opacity="0" stroke="#000000" stroke-width="8" stroke-opacity="1"></use></g></g><g><use xlink:href="#caqaRxW2s" opacity="1" fill="#020202" fill-opacity="0.99"></use><g><use xlink:href="#caqaRxW2s" opacity="1" fill-opacity="0" stroke="#000000" stroke-width="1" stroke-opacity="1"></use></g></g><g><use xlink:href="#b2b46ghdad" opacity="1" fill="#020202" fill-opacity="0.99"></use><g><use xlink:href="#b2b46ghdad" opacity="1" fill-opacity="0" stroke="#000000" stroke-width="1" stroke-opacity="1"></use></g></g></g></g></svg>